<svg width="100" height="100" viewBox="0 0 100 100" fill="none" xmlns="http://www.w3.org/2000/svg">
<circle cx="50" cy="50" r="50" fill="#6CDD6F"/>
<path d="M45.7144 45.7142H37.143C35.6275 45.7142 34.174 46.3163 33.1024 47.3879C32.0308 48.4595 31.4287 49.913 31.4287 51.4285V62.8571H35.7144" stroke="white" stroke-linecap="round" stroke-linejoin="round"/>
<path d="M65.7144 62.8571H68.5715V42.8571C68.5715 42.0994 68.2705 41.3727 67.7347 40.8368C67.1988 40.301 66.4721 40 65.7144 40H48.5715C47.8137 40 47.087 40.301 46.5512 40.8368C46.0154 41.3727 45.7144 42.0994 45.7144 42.8571V59.0857" stroke="white" stroke-linecap="round" stroke-linejoin="round"/>
<path d="M47.1431 62.8572H54.2859" stroke="white" stroke-linecap="round" stroke-linejoin="round"/>
<path d="M41.4286 68.5714C44.5846 68.5714 47.1429 66.013 47.1429 62.8571C47.1429 59.7012 44.5846 57.1428 41.4286 57.1428C38.2727 57.1428 35.7144 59.7012 35.7144 62.8571C35.7144 66.013 38.2727 68.5714 41.4286 68.5714Z" stroke="white" stroke-linecap="round" stroke-linejoin="round"/>
<path d="M59.9999 68.5714C63.1558 68.5714 65.7142 66.013 65.7142 62.8571C65.7142 59.7012 63.1558 57.1428 59.9999 57.1428C56.844 57.1428 54.2856 59.7012 54.2856 62.8571C54.2856 66.013 56.844 68.5714 59.9999 68.5714Z" stroke="white" stroke-linecap="round" stroke-linejoin="round"/>
</svg>
