<svg width="154" height="161" viewBox="0 0 154 161" fill="none" xmlns="http://www.w3.org/2000/svg">
<path d="M72.7629 45.78V68.904H87.7089V75.484H72.7629V105H65.2429V39.2H88.5549V45.78H72.7629Z" fill="black"/>
<path d="M55.2908 4.10574L59.0278 14.6639L52.8513 16.85L52.4776 15.7942L57.5983 13.9818L56.4238 10.6635L52.0271 12.2197L51.6534 11.1639L56.0501 9.60769L54.235 4.47944L55.2908 4.10574Z" fill="black"/>
<path d="M38.3364 11.6471C38.9785 11.2455 39.6614 10.9945 40.385 10.8942C41.1114 10.7984 41.8308 10.8423 42.5432 11.0258C43.2555 11.2093 43.9191 11.5209 44.5337 11.9605C45.1512 12.4046 45.6721 12.9658 46.0963 13.6441C46.5205 14.3223 46.7958 15.034 46.9221 15.7791C47.0512 16.5287 47.0424 17.2639 46.8957 17.9847C46.749 18.7056 46.4722 19.3694 46.0653 19.9761C45.6613 20.5874 45.1383 21.0938 44.4962 21.4954C43.8496 21.8998 43.1631 22.1499 42.4366 22.2457C41.7131 22.346 40.9951 22.3044 40.2827 22.1209C39.5703 21.9374 38.9076 21.6222 38.2947 21.1752C37.68 20.7356 37.1606 20.1766 36.7363 19.4984C36.3121 18.8201 36.0354 18.1062 35.9063 17.3566C35.7754 16.6144 35.7834 15.8828 35.9301 15.162C36.0769 14.4411 36.3523 13.7751 36.7563 13.1638C37.1631 12.5571 37.6898 12.0515 38.3364 11.6471ZM38.9304 12.5966C38.4104 12.9219 37.9916 13.3285 37.674 13.8165C37.3548 14.3118 37.1401 14.8487 37.0301 15.427C36.9155 16.0082 36.9132 16.5979 37.023 17.196C37.1284 17.7969 37.3493 18.3664 37.6859 18.9045C38.0253 19.4471 38.4421 19.8972 38.9363 20.2549C39.4333 20.6171 39.9668 20.8716 40.5367 21.0184C41.1049 21.1726 41.6802 21.2122 42.2624 21.1374C42.8402 21.0654 43.3868 20.8682 43.9023 20.5458C44.4223 20.2206 44.8419 19.8103 45.1611 19.315C45.4787 18.827 45.6948 18.2924 45.8093 17.7112C45.9194 17.1328 45.9217 16.5432 45.8164 15.9422C45.7065 15.3442 45.4833 14.7761 45.1467 14.238C44.8045 13.6909 44.3863 13.2385 43.8921 12.8808C43.3979 12.5231 42.8667 12.2672 42.2984 12.113C41.7257 11.9617 41.1505 11.922 40.5727 11.994C39.9933 12.0734 39.4458 12.2742 38.9304 12.5966Z" fill="black"/>
<path d="M24.0168 23.2573C24.5374 22.7072 25.1352 22.2927 25.8104 22.0138C26.4894 21.7385 27.1968 21.6002 27.9324 21.5988C28.668 21.5974 29.3885 21.7322 30.094 22.0032C30.8033 22.2779 31.4484 22.6902 32.0295 23.2401C32.6106 23.79 33.0558 24.4096 33.3653 25.099C33.6787 25.7921 33.855 26.5059 33.8941 27.2405C33.9332 27.9751 33.8321 28.6872 33.5908 29.3767C33.3534 30.0699 32.9744 30.6915 32.4538 31.2415C31.9296 31.7955 31.328 32.2101 30.649 32.4854C29.9738 32.7643 29.2684 32.9045 28.5328 32.9059C27.7971 32.9073 27.0765 32.7687 26.3709 32.4901C25.6655 32.2191 25.0222 31.8086 24.4412 31.2588C23.8601 30.7089 23.4129 30.0874 23.0995 29.3943C22.7863 28.7088 22.6102 27.9987 22.5711 27.2641C22.532 26.5295 22.6311 25.8157 22.8685 25.1225C23.1098 24.433 23.4926 23.8112 24.0168 23.2573ZM24.8303 24.0271C24.4087 24.4726 24.1056 24.9714 23.9209 25.5236C23.7363 26.0832 23.6635 26.6568 23.7023 27.2443C23.7375 27.8356 23.8834 28.4069 24.1401 28.9582C24.393 29.5133 24.75 30.009 25.211 30.4453C25.6758 30.8852 26.1924 31.2161 26.7606 31.4381C27.3328 31.6638 27.9131 31.7761 28.5016 31.7749C29.0903 31.7814 29.657 31.6752 30.2018 31.4564C30.7429 31.2416 31.2224 30.9133 31.6404 30.4717C32.0619 30.0262 32.365 29.5237 32.5495 28.964C32.7342 28.4119 32.809 27.8401 32.7738 27.2488C32.735 26.6613 32.5891 26.09 32.3361 25.5349C32.0795 24.9836 31.7206 24.4898 31.2597 24.0536C30.7909 23.61 30.2725 23.2772 29.7042 23.0552C29.136 22.8332 28.5575 22.719 27.9688 22.7126C27.3764 22.7101 26.8096 22.8162 26.2685 23.0311C25.7276 23.2535 25.2482 23.5855 24.8303 24.0271Z" fill="black"/>
<path d="M15.8401 33.6539L25.5712 39.1987L23.7375 42.4169C23.3546 43.0888 22.8681 43.6464 22.2779 44.0897C21.6924 44.5356 21.0481 44.853 20.3452 45.0417C19.6468 45.2331 18.9321 45.2862 18.201 45.2011C17.472 45.1233 16.7714 44.893 16.0995 44.5101C15.4276 44.1273 14.87 43.6408 14.4267 43.0506C13.9854 42.4676 13.6668 41.8257 13.4708 41.1247C13.2794 40.4264 13.2239 39.7104 13.3044 38.9767C13.3895 38.2456 13.6235 37.5441 14.0063 36.8722L15.8401 33.6539ZM16.2587 35.1815L14.9795 37.4266C14.6732 37.9642 14.4863 38.5237 14.4189 39.1053C14.3535 39.6941 14.3975 40.2686 14.551 40.8287C14.7045 41.3888 14.9585 41.9018 15.313 42.3678C15.6695 42.841 16.1165 43.2307 16.654 43.537C17.1915 43.8433 17.7524 44.0278 18.3366 44.0906C18.9228 44.1607 19.4973 44.1166 20.06 43.9585C20.6201 43.805 21.1332 43.551 21.5991 43.1965C22.0697 42.8447 22.4581 42.4 22.7644 41.8624L24.0436 39.6173L16.2587 35.1815Z" fill="black"/>
<path d="M17.1703 58.1346L16.7813 59.396L12.0383 53.9817L7.19161 52.4868L7.5217 51.4166L12.3684 52.9114L19.3347 51.1168L18.9457 52.3782L13.373 53.8073L17.1703 58.1346Z" fill="black"/>
<path d="M4.02292 72.3255L15.2193 72.0406L15.3859 78.5905L14.2663 78.619L14.1281 73.1888L10.6093 73.2783L10.7279 77.9408L9.60825 77.9693L9.48964 73.3068L4.0514 73.4451L4.02292 72.3255Z" fill="black"/>
<path d="M5.01567 85.7829L15.9383 83.3058L16.7787 87.0117C16.9109 87.5942 16.887 88.152 16.7071 88.6849C16.5323 89.2168 16.2344 89.6753 15.8132 90.0607C15.3972 90.4449 14.8901 90.7048 14.292 90.8405C13.7563 90.962 13.2452 90.963 12.7587 90.8437C12.2723 90.7243 11.843 90.5072 11.4708 90.1924C11.0998 89.8828 10.8138 89.5019 10.6128 89.0498L6.59924 92.7655L6.31261 91.5016L10.2492 87.8444L9.79627 85.8471L5.26338 86.8751L5.01567 85.7829ZM10.8885 85.5994L11.46 88.1194C11.5473 88.5043 11.7206 88.8342 11.9798 89.109C12.2453 89.3878 12.5606 89.5843 12.9256 89.6984C13.2969 89.8165 13.688 89.829 14.0989 89.7358C14.5098 89.6426 14.8547 89.4632 15.1335 89.1977C15.4187 88.9361 15.6184 88.6229 15.7325 88.2579C15.853 87.897 15.8696 87.5241 15.7823 87.1392L15.2108 84.6192L10.8885 85.5994Z" fill="black"/>
<path d="M9.14305 100.39L19.3344 95.745L22.1612 101.947L21.1421 102.412L18.7798 97.2286L15.5768 98.6885L17.531 102.976L16.5119 103.441L14.5576 99.153L10.6267 100.945L12.989 106.128L11.9699 106.592L9.14305 100.39Z" fill="black"/>
<path d="M17.8604 116.42C17.5074 115.938 17.2407 115.416 17.0603 114.854C16.8831 114.296 16.8114 113.747 16.8452 113.206C16.8789 112.666 17.039 112.185 17.3254 111.764L18.2609 112.377C18.0635 112.668 17.9594 113.008 17.9487 113.4C17.9453 113.792 18.015 114.194 18.1576 114.605C18.3033 115.021 18.5054 115.405 18.7639 115.758C19.0665 116.171 19.4174 116.505 19.8167 116.762C20.216 117.018 20.6186 117.166 21.0246 117.206C21.4349 117.242 21.8078 117.138 22.1434 116.892C22.4832 116.643 22.6794 116.324 22.7317 115.935C22.7841 115.546 22.7403 115.125 22.6003 114.673C22.4677 114.221 22.2925 113.774 22.0745 113.332C21.7313 112.638 21.4725 111.978 21.2982 111.352C21.1271 110.731 21.1052 110.155 21.2328 109.625C21.3646 109.092 21.7081 108.622 22.2631 108.216C22.7836 107.834 23.3457 107.654 23.9492 107.675C24.5528 107.695 25.1396 107.874 25.7097 108.21C26.283 108.55 26.7793 109.006 27.1985 109.578C27.5421 110.047 27.8046 110.559 27.9861 111.114C28.1676 111.668 28.2431 112.218 28.2124 112.763C28.185 113.312 28.0242 113.81 27.7301 114.257L26.7915 113.625C26.9932 113.332 27.0957 112.989 27.099 112.597C27.1098 112.205 27.0418 111.806 26.8949 111.397C26.7523 110.986 26.5502 110.602 26.2886 110.245C25.9934 109.833 25.6441 109.501 25.2405 109.248C24.8443 108.996 24.4411 108.851 24.0308 108.815C23.6249 108.775 23.2562 108.876 22.925 109.119C22.5378 109.403 22.3128 109.723 22.2502 110.08C22.1949 110.437 22.2449 110.831 22.4001 111.259C22.5553 111.687 22.7544 112.153 22.9973 112.656C23.3207 113.305 23.5583 113.954 23.7099 114.604C23.8659 115.25 23.8799 115.851 23.7521 116.407C23.6286 116.961 23.3129 117.423 22.8053 117.795C22.289 118.173 21.7269 118.354 21.1191 118.336C20.5156 118.316 19.9272 118.135 19.3539 117.795C18.7837 117.459 18.2859 117 17.8604 116.42Z" fill="black"/>
<path d="M38.0373 121.279L38.8795 122.018L31.4964 130.44L30.6542 129.701L34.2403 125.611L29.8187 121.735L26.2327 125.825L25.3905 125.087L32.7736 116.665L33.6158 117.403L30.5571 120.892L34.9786 124.768L38.0373 121.279Z" fill="black"/>
<path d="M50.994 141.617C50.2852 141.351 49.6714 140.96 49.1526 140.446C48.6357 139.927 48.2331 139.331 47.9449 138.658C47.6635 137.982 47.512 137.264 47.4903 136.504C47.4737 135.746 47.6062 134.992 47.888 134.243C48.1697 133.494 48.5668 132.84 49.0793 132.281C49.5967 131.724 50.1831 131.286 50.8382 130.968C51.5002 130.648 52.1958 130.465 52.925 130.42C53.656 130.37 54.3759 130.479 55.0847 130.746C55.9333 131.065 56.6403 131.556 57.2058 132.219C57.7712 132.882 58.1655 133.628 58.3887 134.459L57.2714 134.611C57.088 133.978 56.7662 133.41 56.3061 132.906C55.8529 132.399 55.3143 132.029 54.6903 131.794C54.1163 131.578 53.5355 131.493 52.9481 131.54C52.3675 131.584 51.814 131.737 51.2875 132.001C50.7609 132.264 50.2933 132.621 49.8846 133.071C49.4758 133.521 49.1597 134.044 48.9362 134.638C48.709 135.242 48.6006 135.848 48.6112 136.456C48.6267 137.065 48.7456 137.643 48.9679 138.188C49.1951 138.735 49.5126 139.217 49.9204 139.632C50.335 140.045 50.8244 140.357 51.3884 140.569C52.0374 140.813 52.6943 140.892 53.3592 140.806C54.0309 140.717 54.6391 140.502 55.1838 140.16L55.9235 141.011C55.2083 141.488 54.4195 141.789 53.5574 141.915C52.6971 142.036 51.8426 141.937 50.994 141.617Z" fill="black"/>
<path d="M68.0983 145.783C67.3458 145.698 66.6552 145.469 66.0264 145.097C65.3982 144.72 64.8624 144.238 64.4191 143.651C63.9757 143.064 63.6503 142.407 63.4429 141.68C63.236 140.948 63.1777 140.185 63.2678 139.39C63.3579 138.595 63.5854 137.867 63.9503 137.205C64.3158 136.538 64.7803 135.968 65.3438 135.495C65.9074 135.022 66.5372 134.675 67.2332 134.453C67.9299 134.226 68.6545 134.155 69.407 134.241C70.1648 134.327 70.8578 134.558 71.486 134.935C72.1148 135.307 72.6508 135.787 73.0942 136.374C73.5375 136.961 73.86 137.62 74.0615 138.351C74.269 139.078 74.3276 139.839 74.2375 140.634C74.1474 141.429 73.9196 142.16 73.5541 142.827C73.1945 143.489 72.733 144.057 72.1694 144.53C71.6059 145.002 70.9758 145.352 70.2791 145.579C69.5831 145.801 68.8561 145.869 68.0983 145.783ZM68.2245 144.67C68.8339 144.739 69.4148 144.681 69.9671 144.497C70.5252 144.308 71.0274 144.022 71.4735 143.637C71.9249 143.254 72.2938 142.794 72.58 142.257C72.8716 141.721 73.0531 141.138 73.1246 140.508C73.1968 139.872 73.1507 139.26 72.9865 138.672C72.823 138.079 72.5638 137.548 72.2091 137.079C71.8604 136.604 71.4348 136.215 70.9325 135.911C70.4355 135.608 69.885 135.422 69.2808 135.354C68.6714 135.285 68.0876 135.345 67.5294 135.533C66.9771 135.718 66.4753 136.002 66.0239 136.385C65.5777 136.769 65.2089 137.23 64.9173 137.765C64.6311 138.302 64.4522 138.885 64.3807 139.516C64.308 140.157 64.3537 140.772 64.5179 141.359C64.6821 141.947 64.9386 142.478 65.2873 142.952C65.6414 143.427 66.067 143.816 66.564 144.119C67.0669 144.418 67.6204 144.601 68.2245 144.67Z" fill="black"/>
<path d="M81.3913 146.215L81.8015 134.815L82.6077 134.688L86.98 142.344L88.7884 133.721L89.5946 133.595L93.4762 144.324L92.3459 144.501L89.3851 136.292L87.6716 144.487L86.9603 144.599L82.8249 137.318L82.5136 146.039L81.3913 146.215Z" fill="black"/>
<path d="M101.299 141.848L96.987 131.511L100.295 130.131C100.846 129.901 101.4 129.829 101.956 129.915C102.51 129.996 103.012 130.211 103.464 130.56C103.919 130.902 104.264 131.356 104.5 131.922C104.739 132.493 104.818 133.064 104.738 133.635C104.663 134.203 104.457 134.714 104.12 135.166C103.788 135.617 103.354 135.954 102.817 136.178L100.543 137.127L102.332 141.416L101.299 141.848ZM100.112 136.093L102.305 135.178C102.669 135.026 102.964 134.799 103.191 134.497C103.42 134.187 103.559 133.843 103.609 133.464C103.662 133.078 103.607 132.69 103.445 132.301C103.283 131.913 103.047 131.604 102.738 131.374C102.431 131.138 102.088 130.995 101.709 130.945C101.333 130.888 100.963 130.936 100.599 131.088L98.4057 132.002L100.112 136.093Z" fill="black"/>
<path d="M110.978 124.37L112.122 123.576L121.86 130.45L120.881 131.13L118.796 129.655L114.347 132.744L115 135.213L114.02 135.893L110.978 124.37ZM114.044 131.591L117.816 128.973L112.335 125.104L114.044 131.591Z" fill="black"/>
<path d="M127.359 125.584L119.074 118.047L119.893 117.148L130.659 118.949L123.871 112.774L124.625 111.946L132.909 119.482L132.097 120.376L121.325 118.581L128.113 124.755L127.359 125.584Z" fill="black"/>
<path d="M131.301 101.522L131.957 100.376L135.402 106.696L139.805 109.213L139.249 110.186L134.846 107.668L127.656 107.898L128.311 106.752L134.062 106.574L131.301 101.522Z" fill="black"/>
<path d="M147.256 90.5385L136.253 88.4483L137.525 81.752L138.625 81.961L137.562 87.557L141.02 88.2139L141.9 83.5847L143 83.7937L142.121 88.4229L146.365 89.2292L147.428 83.6333L148.528 83.8423L147.256 90.5385Z" fill="black"/>
<path d="M149.391 72.4172C149.401 73.0145 149.318 73.5946 149.14 74.1577C148.963 74.7154 148.705 75.2052 148.365 75.627C148.026 76.0488 147.617 76.3491 147.14 76.5278L146.731 75.4866C147.059 75.3637 147.341 75.1456 147.576 74.8322C147.805 74.5137 147.98 74.1453 148.101 73.7272C148.222 73.3038 148.279 72.8734 148.271 72.4361C148.263 71.9242 148.169 71.4484 147.991 71.0087C147.813 70.569 147.57 70.2157 147.261 69.9489C146.947 69.6821 146.582 69.5523 146.166 69.5593C145.745 69.5664 145.401 69.7136 145.134 70.0008C144.866 70.2881 144.659 70.6569 144.512 71.1075C144.36 71.5528 144.245 72.0188 144.168 72.5055C144.047 73.2703 143.878 73.9586 143.659 74.5704C143.44 75.1769 143.125 75.6596 142.715 76.0186C142.3 76.3776 141.748 76.563 141.06 76.5746C140.415 76.5855 139.852 76.4084 139.371 76.0431C138.89 75.6779 138.514 75.1935 138.242 74.59C137.971 73.9812 137.829 73.3221 137.817 72.6129C137.807 72.0316 137.888 71.4622 138.06 70.9045C138.232 70.3469 138.487 69.8545 138.827 69.4274C139.166 68.9949 139.585 68.6811 140.083 68.486L140.485 69.5433C140.151 69.6663 139.87 69.8871 139.64 70.2057C139.406 70.5191 139.23 70.8847 139.115 71.3028C138.994 71.7209 138.937 72.1512 138.945 72.5938C138.948 73.1005 139.041 73.5737 139.225 74.0133C139.403 74.4477 139.649 74.7982 139.962 75.065C140.271 75.3318 140.631 75.4617 141.041 75.4548C141.521 75.4467 141.89 75.3151 142.147 75.06C142.398 74.7998 142.584 74.4499 142.705 74.0105C142.826 73.571 142.932 73.0758 143.024 72.5249C143.135 71.8082 143.315 71.1411 143.566 70.5234C143.812 69.9058 144.147 69.4067 144.573 69.0262C144.993 68.6457 145.518 68.4501 146.147 68.4395C146.787 68.4287 147.35 68.6058 147.837 68.971C148.317 69.3362 148.694 69.8233 148.965 70.4321C149.237 71.0356 149.379 71.6973 149.391 72.4172Z" fill="black"/>
<path d="M135.378 55.3703L136.467 55.1088L137.363 58.8427L147.165 56.4892L147.426 57.5782L137.625 59.9317L138.519 63.6578L137.43 63.9193L135.378 55.3703Z" fill="black"/>
<path d="M143.602 45.0573C143.672 45.2191 143.672 45.3816 143.602 45.5447C143.538 45.7058 143.423 45.8221 143.256 45.8935C143.099 45.9608 142.94 45.9622 142.779 45.8978C142.613 45.8355 142.495 45.7235 142.426 45.5617C142.355 45.395 142.353 45.2301 142.423 45.0669C142.485 44.901 142.595 44.7843 142.752 44.7171C142.918 44.6456 143.083 44.6446 143.246 44.7139C143.412 44.7762 143.531 44.8907 143.602 45.0573Z" fill="black"/>
<path d="M134.4 29.61L126.431 35.7826L127.166 36.7313L126.085 37.1641L124.86 35.583L133.715 28.7245L134.4 29.61Z" fill="black"/>
<path d="M126.928 21.1941L122.213 22.6766C122.773 22.9016 123.235 23.2347 123.598 23.6758C123.956 24.1209 124.201 24.62 124.33 25.1731C124.456 25.7301 124.454 26.2926 124.323 26.8607C124.186 27.429 123.9 27.949 123.468 28.4206C123.122 28.7979 122.724 29.0886 122.277 29.2929C121.825 29.4935 121.358 29.6042 120.875 29.6249C120.389 29.6496 119.917 29.5812 119.457 29.4198C118.989 29.2588 118.565 29.0034 118.184 28.6536C117.681 28.1921 117.338 27.6463 117.156 27.0162C116.967 26.3864 116.94 25.7496 117.074 25.1059C117.205 24.4586 117.503 23.8815 117.968 23.3745C118.231 23.0876 118.494 22.8725 118.755 22.7291C119.01 22.5861 119.323 22.4499 119.695 22.3207L125.979 20.3234L126.928 21.1941ZM122.501 23.9722C122.127 23.6296 121.714 23.4134 121.261 23.3234C120.8 23.2338 120.35 23.2588 119.911 23.3985C119.472 23.5382 119.097 23.777 118.787 24.115C118.448 24.4844 118.235 24.8974 118.149 25.3541C118.056 25.8111 118.079 26.2593 118.218 26.6987C118.355 27.142 118.594 27.5205 118.935 27.8342C119.313 28.1804 119.732 28.3983 120.192 28.4879C120.649 28.574 121.099 28.5452 121.542 28.4016C121.977 28.2582 122.352 28.0156 122.666 27.6738C122.99 27.3201 123.201 26.9165 123.299 26.4631C123.392 26.0137 123.373 25.5691 123.241 25.1294C123.105 24.686 122.858 24.3003 122.501 23.9722Z" fill="black"/>
<path d="M115.678 12.3396L111.346 14.7188C111.94 14.8294 112.458 15.0654 112.9 15.4268C113.339 15.7927 113.677 16.2342 113.912 16.7511C114.145 17.2726 114.253 17.8246 114.237 18.4071C114.213 18.9915 114.036 19.5574 113.704 20.1047C113.439 20.5426 113.106 20.9056 112.707 21.1938C112.304 21.4792 111.867 21.6795 111.398 21.7945C110.927 21.9141 110.45 21.9399 109.967 21.8719C109.477 21.8057 109.011 21.6385 108.568 21.3704C107.985 21.0166 107.542 20.5487 107.24 19.9665C106.93 19.3862 106.778 18.7672 106.784 18.1096C106.785 17.4492 106.964 16.8248 107.321 16.2364C107.522 15.9034 107.738 15.641 107.966 15.449C108.187 15.2588 108.468 15.0638 108.807 14.8641L114.577 11.6721L115.678 12.3396ZM111.882 15.9327C111.449 15.6701 111.002 15.5391 110.54 15.5399C110.07 15.5424 109.634 15.6552 109.231 15.8785C108.827 16.1017 108.507 16.4095 108.269 16.8017C108.009 17.2305 107.882 17.6772 107.887 18.1419C107.885 18.6083 107.996 19.0433 108.219 19.4467C108.439 19.8547 108.748 20.1789 109.145 20.4194C109.583 20.6848 110.036 20.8162 110.505 20.8137C110.97 20.8084 111.406 20.6919 111.812 20.4641C112.211 20.2381 112.53 19.9267 112.771 19.5299C113.02 19.1193 113.147 18.6822 113.154 18.2185C113.158 17.7594 113.052 17.3272 112.836 16.922C112.615 16.514 112.298 16.1842 111.882 15.9327Z" fill="black"/>
<path d="M101.648 5.18822C102.29 5.42054 102.818 5.78744 103.232 6.28894C103.641 6.78863 103.904 7.35461 104.021 7.98688C104.137 8.62417 104.081 9.25625 103.854 9.88313L102.801 9.50199C102.959 9.06569 102.996 8.62546 102.913 8.18132C102.828 7.7422 102.644 7.34948 102.361 7.00316C102.073 6.65502 101.708 6.40109 101.267 6.24138C100.831 6.08348 100.393 6.04701 99.9538 6.13198C99.5146 6.21695 99.1219 6.40096 98.7756 6.684C98.4224 6.97024 98.1669 7.33151 98.009 7.76782C97.8493 8.20914 97.8094 8.64845 97.8894 9.08576C97.9625 9.52627 98.1506 9.92332 98.4537 10.2769C98.75 10.6337 99.1589 10.9064 99.6805 11.0952L102.238 12.0208L99.481 16.5361L94.5538 14.7529L94.9349 13.6997L99.0121 15.1753L100.563 12.6057L99.3396 12.1544C98.6261 11.8849 98.0521 11.5041 97.6176 11.0122C97.178 10.5185 96.8987 9.95804 96.7798 9.33078C96.654 8.70673 96.7127 8.05869 96.9559 7.38668C97.1265 6.91527 97.3774 6.50411 97.7085 6.1532C98.0347 5.80047 98.4163 5.52171 98.8535 5.3169C99.2837 5.1153 99.7397 4.99955 100.221 4.96965C100.696 4.94294 101.172 5.0158 101.648 5.18822Z" fill="black"/>
<circle cx="77.5" cy="6.5" r="2.5" fill="black"/>
</svg>
