<svg width="456" height="376" viewBox="0 0 456 376" fill="none" xmlns="http://www.w3.org/2000/svg">
<path d="M274.196 363.25C292.734 363.25 307.762 359.113 307.762 354.009C307.762 348.905 292.734 344.768 274.196 344.768C255.658 344.768 240.63 348.905 240.63 354.009C240.63 359.113 255.658 363.25 274.196 363.25Z" fill="#263238"/>
<path d="M100.711 375C65.7748 375 60.6168 369.949 60.1087 365.87C59.9933 365.02 60.0769 364.156 60.353 363.344C60.629 362.533 61.0899 361.797 61.6992 361.194C71.1097 351.312 125.341 355.49 200.382 361.272C210.853 362.078 221.677 362.907 232.778 363.737C308.603 369.374 339.131 368.644 345.438 361.017C346.719 359.459 346.984 357.513 346.278 354.882C343.273 343.884 303.113 343.829 287.904 344.691C287.556 344.709 287.215 344.589 286.954 344.358C286.694 344.126 286.535 343.801 286.512 343.453C286.502 343.281 286.526 343.108 286.582 342.945C286.639 342.782 286.727 342.632 286.842 342.503C286.958 342.375 287.097 342.271 287.253 342.196C287.408 342.122 287.577 342.08 287.749 342.071C293.57 341.728 344.709 339.153 348.807 354.23C349.746 357.701 349.315 360.476 347.459 362.731C340.379 371.33 311.397 372.248 232.59 366.389C221.478 365.56 210.654 364.731 200.183 363.924C128.655 358.398 72.1479 354.053 63.599 363.04C63.261 363.361 63.0044 363.758 62.8507 364.199C62.6971 364.639 62.6506 365.11 62.7153 365.571C63.0356 368.18 69.3424 374.017 120.15 371.983C148.569 370.877 177.121 367.749 177.408 367.716C177.741 367.702 178.066 367.816 178.318 368.033C178.571 368.25 178.731 368.555 178.768 368.886C178.804 369.217 178.714 369.55 178.515 369.817C178.316 370.084 178.023 370.265 177.695 370.325C177.408 370.325 148.768 373.464 120.261 374.602C112.927 374.868 106.432 375 100.711 375Z" fill="white" stroke="#263238" stroke-width="1.1133" stroke-miterlimit="10"/>
<path d="M261.715 362.122C283.559 362.122 301.267 344.4 301.267 322.539C301.267 300.677 283.559 282.955 261.715 282.955C239.87 282.955 222.162 300.677 222.162 322.539C222.162 344.4 239.87 362.122 261.715 362.122Z" fill="white"/>
<path d="M261.717 362.122C268.915 362.127 275.977 360.165 282.143 356.449C288.309 352.732 293.344 347.402 296.706 341.033C300.068 334.663 301.629 327.496 301.22 320.304C300.812 313.112 298.45 306.168 294.388 300.221C293.958 317.465 284.448 342.922 234.988 351.677C242.269 358.397 251.812 362.127 261.717 362.122Z" fill="#E9E9E9"/>
<path opacity="0.3" d="M261.717 362.122C268.915 362.127 275.977 360.165 282.143 356.449C288.309 352.732 293.344 347.402 296.706 341.033C300.068 334.663 301.629 327.496 301.22 320.304C300.812 313.112 298.45 306.168 294.388 300.221C293.958 317.465 284.448 342.922 234.988 351.677C242.269 358.397 251.812 362.127 261.717 362.122Z" fill="white"/>
<path d="M281.177 338.058C274.123 331.191 265.558 326.076 256.17 323.125C265.558 326.076 274.123 331.191 281.177 338.058H283.275C287.93 333.44 291.939 328.212 295.193 322.517C276.67 302.929 258.656 304.93 258.656 304.93C258.656 304.93 276.725 302.929 295.248 322.539C296.264 320.715 297.115 319.002 297.811 317.421C290.101 306.61 276.825 299.237 269.701 298.132L268.044 297.734C265.491 297.269 262.878 297.232 260.312 297.623C262.878 297.232 265.491 297.269 268.044 297.734L272.76 284.469C270.532 283.832 268.251 283.392 265.945 283.154C262.886 288.095 255.011 303.88 255.011 335.195C255.011 303.88 262.886 288.095 265.945 283.154C264.62 283.032 263.295 282.955 261.936 282.955C260.441 282.96 258.948 283.048 257.463 283.22C252.802 290.273 243.888 306.931 243.292 331.934C252.537 335.306 264.907 337.826 281.177 338.058ZM290.112 330C274.362 314.635 256.977 313.828 256.977 313.828C256.977 313.828 274.362 314.635 290.112 330V330Z" stroke="#263238" stroke-width="1.1133" stroke-linecap="round" stroke-linejoin="round"/>
<path d="M243.249 332.001C243.845 306.997 252.759 290.339 257.42 283.287C253.773 283.696 250.201 284.611 246.806 286.006C238.435 298.296 233.706 312.704 233.165 327.568C236.408 329.301 239.779 330.783 243.249 332.001Z" stroke="#263238" stroke-width="1.1133" stroke-linecap="round" stroke-linejoin="round"/>
<path d="M246.804 285.973C239.974 288.791 234.067 293.464 229.75 299.464C225.433 305.465 222.877 312.553 222.373 319.93C225.625 322.923 229.252 325.479 233.164 327.535C233.705 312.671 238.433 298.263 246.804 285.973V285.973Z" stroke="#263238" stroke-width="1.1133" stroke-linecap="round" stroke-linejoin="round"/>
<path d="M297.756 317.421C298.617 315.517 299.355 313.56 299.965 311.562C298.314 305.924 295.436 300.722 291.538 296.33L288.478 306.544L291.483 296.33C289.043 293.591 286.237 291.203 283.144 289.233L279.775 301.846L283.166 289.289C279.932 287.219 276.411 285.636 272.717 284.591L268.001 297.855C275.224 298.894 286.391 303.15 297.756 317.421Z" stroke="#263238" stroke-width="1.1133" stroke-linecap="round" stroke-linejoin="round"/>
<path d="M301.48 324.407C301.48 323.832 301.48 323.302 301.48 322.683C301.48 318.919 300.944 315.175 299.889 311.562C299.279 313.561 298.541 315.517 297.68 317.421C297.206 318.589 296.645 319.72 296.001 320.803C296.068 320.87 295.052 322.473 295.118 322.539C295.184 322.605 294.013 324.529 294.013 324.462C291.385 329.138 283.454 338.092 283.587 338.092C283.454 338.092 279.301 341.861 277.037 343.762C272.895 347.195 268.506 350.317 263.904 353.103H264.191H263.904C259.379 355.84 254.699 358.313 249.888 360.509C253.751 361.725 257.778 362.344 261.828 362.344C262.501 362.344 263.164 362.344 263.816 362.344C271.912 357.933 284.78 347.874 301.48 324.407Z" stroke="#263238" stroke-width="1.1133" stroke-linecap="round" stroke-linejoin="round"/>
<path d="M301.479 324.407C284.778 347.874 271.911 357.933 263.881 362.244C273.728 361.748 283.037 357.596 289.989 350.599C296.941 343.603 301.038 334.264 301.479 324.407V324.407Z" stroke="#263238" stroke-width="1.1133" stroke-linecap="round" stroke-linejoin="round"/>
<path d="M230.924 347.398C235.825 353.564 242.451 358.128 249.955 360.508C254.766 358.312 259.446 355.839 263.971 353.102C254.539 354.849 239.783 350.516 230.924 347.398Z" stroke="#263238" stroke-width="1.1133" stroke-linecap="round" stroke-linejoin="round"/>
<path d="M263.969 353.103C268.57 350.317 272.96 347.195 277.102 343.762C248.616 346.68 231.043 337.849 223.577 332.83C224.986 338.145 227.488 343.107 230.922 347.399C239.78 350.516 254.536 354.849 263.969 353.103Z" stroke="#263238" stroke-width="1.1133" stroke-linecap="round" stroke-linejoin="round"/>
<path d="M277.102 343.762C279.367 341.861 281.41 339.96 283.277 338.08H281.178C281.333 338.224 281.487 338.368 281.631 338.523C281.487 338.368 281.333 338.224 281.178 338.08C264.909 337.848 252.538 335.328 243.249 332.023C229.674 327.314 224.781 322.251 222.374 319.985C222.307 320.892 222.263 321.787 222.263 322.705C222.264 326.13 222.706 329.54 223.578 332.852C231.044 337.848 248.617 346.68 277.102 343.762Z" stroke="#263238" stroke-width="1.1133" stroke-linecap="round" stroke-linejoin="round"/>
<path d="M261.715 362.122C283.559 362.122 301.267 344.4 301.267 322.539C301.267 300.677 283.559 282.955 261.715 282.955C239.87 282.955 222.162 300.677 222.162 322.539C222.162 344.4 239.87 362.122 261.715 362.122Z" stroke="#263238" stroke-width="1.1133" stroke-linecap="round" stroke-linejoin="round"/>
<path d="M334.57 254.889C334.57 254.889 331.864 246.102 323.978 242.94C318.455 240.73 312.192 241.326 306.504 242.31C295.923 244.156 286.689 248.368 276.682 251.96C276.682 251.96 280.968 250.379 298.541 258.957C305.013 262.107 312.413 264.561 319.814 264.396C325.745 264.263 334.868 262.561 334.57 254.889Z" fill="#E9E9E9"/>
<path d="M335.521 229.057C335.521 229.057 335.521 219.849 328.894 214.554C324.277 210.862 318.07 209.591 312.326 208.895C301.657 207.601 291.606 208.961 280.958 209.502C280.958 209.502 285.52 209.237 299.867 222.524C305.158 227.41 311.542 231.897 318.644 233.876C324.366 235.468 333.577 236.485 335.521 229.057Z" fill="#E9E9E9"/>
<path d="M353.644 263.224C353.644 263.224 346.476 257.465 346.454 248.965C346.454 243.051 349.292 237.402 352.308 232.483C357.919 223.309 365.23 216.279 372.277 208.265C372.277 208.265 369.229 211.669 370.709 231.179C371.261 238.364 370.797 246.157 367.914 252.977C365.65 258.46 360.713 266.319 353.644 263.224Z" fill="#E9E9E9"/>
<path d="M379.048 277.351C379.048 277.351 378.032 268.209 384.019 262.174C388.172 257.985 394.191 255.995 399.791 254.646C410.24 252.126 420.379 252.314 431.016 251.618C431.016 251.618 426.465 251.872 413.741 266.728C409.058 272.255 403.237 277.395 396.378 280.192C390.911 282.436 381.876 284.503 379.048 277.351Z" fill="#E9E9E9"/>
<path d="M377.424 244.753C377.424 244.753 368.312 243.504 363.938 236.219C360.889 231.157 360.437 224.834 360.492 219.064C360.602 208.32 363.275 198.515 365.208 188.025C365.208 188.025 364.336 192.513 375.624 208.485C379.777 214.377 383.355 221.297 384.46 228.637C385.244 234.528 385.034 243.802 377.424 244.753Z" fill="#E9E9E9"/>
<path d="M403.647 228.383C403.647 228.383 410.197 234.838 418.635 233.909C424.5 233.235 429.78 229.731 434.308 226.172C442.747 219.54 448.877 211.426 456.001 203.5C456.001 203.5 452.985 206.916 433.447 207.723C426.256 208.021 418.58 209.381 412.14 213.051C406.971 215.947 399.759 221.772 403.647 228.383Z" fill="#E9E9E9"/>
<path d="M396.058 222.004C396.058 222.004 405.203 222.922 411.167 216.875C415.32 212.664 417.242 206.629 418.534 201.002C420.942 190.534 420.655 180.376 421.229 169.731C421.229 169.731 421.031 174.285 406.307 187.174C400.895 191.916 395.759 197.797 393.053 204.683C390.855 210.221 388.878 219.285 396.058 222.004Z" fill="#E9E9E9"/>
<path d="M363.397 311.109L347.602 272.211L329.389 227.233" stroke="#263238" stroke-width="1.1133" stroke-linecap="round" stroke-linejoin="round"/>
<path d="M367.041 304.422L382.825 250.335L399.834 216.909" stroke="#263238" stroke-width="1.1133" stroke-linecap="round" stroke-linejoin="round"/>
<path d="M373.105 283.154L388.899 274.035" stroke="#263238" stroke-width="1.1133" stroke-linecap="round" stroke-linejoin="round"/>
<path d="M382.827 250.335L374.93 232.705" stroke="#263238" stroke-width="1.1133" stroke-linecap="round" stroke-linejoin="round"/>
<path d="M392.711 232.793L411.973 224.193" stroke="#263238" stroke-width="1.1133" stroke-linecap="round" stroke-linejoin="round"/>
<path d="M350.64 279.506L357.322 252.767" stroke="#263238" stroke-width="1.1133" stroke-linecap="round" stroke-linejoin="round"/>
<path d="M341.782 259.178L326.352 250.943" stroke="#263238" stroke-width="1.1133" stroke-linecap="round" stroke-linejoin="round"/>
<path d="M371.493 330.553H358.327C356.175 330.552 354.09 329.799 352.433 328.425C350.775 327.051 349.649 325.141 349.248 323.025L344.565 298.342H385.255L380.583 323.025C380.179 325.142 379.051 327.052 377.392 328.426C375.732 329.8 373.646 330.552 371.493 330.553Z" fill="#263238" stroke="#263238" stroke-width="1.1133" stroke-linecap="round" stroke-linejoin="round"/>
<path d="M191.446 278.545C166.859 278.545 152.081 256.713 146.835 237.513L146.658 236.839C146.378 235.908 146.289 234.93 146.396 233.963C146.503 232.997 146.803 232.062 147.279 231.215C147.755 230.368 148.397 229.625 149.167 229.032C149.936 228.438 150.817 228.007 151.758 227.762C152.698 227.517 153.677 227.465 154.638 227.608C155.599 227.751 156.521 228.086 157.349 228.594C158.178 229.102 158.895 229.772 159.459 230.563C160.022 231.355 160.421 232.253 160.63 233.202L160.762 233.699C164.75 248.312 175.607 265.015 193.025 264.053C196.301 263.939 199.516 263.138 202.461 261.7C205.407 260.262 208.017 258.22 210.123 255.707C219.677 244.742 223.952 220.899 223.002 208.872C222.912 208.101 222.978 207.319 223.197 206.573C223.416 205.828 223.783 205.134 224.276 204.534C224.768 203.933 225.377 203.438 226.065 203.079C226.753 202.719 227.507 202.502 228.281 202.44C229.055 202.378 229.833 202.473 230.57 202.72C231.306 202.966 231.985 203.358 232.567 203.873C233.148 204.388 233.62 205.014 233.954 205.716C234.288 206.417 234.478 207.179 234.511 207.955C235.615 221.341 234.157 250.114 221.003 265.203C217.636 269.17 213.484 272.397 208.81 274.68C204.136 276.963 199.04 278.252 193.843 278.467C193.036 278.522 192.23 278.545 191.446 278.545Z" fill="white"/>
<path d="M228.294 202.649C226.768 202.773 225.354 203.498 224.362 204.665C223.37 205.832 222.882 207.345 223.004 208.873C223.468 214.742 222.683 223.419 220.651 232.086C223.554 231.963 226.456 232.337 229.233 233.191C228.576 241.507 225.658 249.485 220.795 256.26C210.07 271.172 193.988 275.936 181.474 274.145C175.874 273.349 169.457 270.409 164.056 267.391C171.384 274.544 181.211 278.553 191.448 278.567C192.232 278.567 193.038 278.567 193.844 278.501C199.041 278.286 204.137 276.996 208.812 274.713C213.486 272.43 217.637 269.203 221.004 265.236C234.159 250.148 235.573 221.375 234.513 207.988C234.458 207.228 234.254 206.486 233.911 205.805C233.568 205.124 233.094 204.518 232.516 204.021C231.938 203.525 231.267 203.148 230.542 202.912C229.818 202.677 229.054 202.588 228.294 202.649Z" fill="#E9E9E9"/>
<path opacity="0.5" d="M228.294 202.649C226.768 202.773 225.354 203.498 224.362 204.665C223.37 205.832 222.882 207.345 223.004 208.873C223.468 214.742 222.683 223.419 220.651 232.086C223.554 231.963 226.456 232.337 229.233 233.191C228.576 241.507 225.658 249.485 220.795 256.26C210.07 271.172 193.988 275.936 181.474 274.145C175.874 273.349 169.457 270.409 164.056 267.391C171.384 274.544 181.211 278.553 191.448 278.567C192.232 278.567 193.038 278.567 193.844 278.501C199.041 278.286 204.137 276.996 208.812 274.713C213.486 272.43 217.637 269.203 221.004 265.236C234.159 250.148 235.573 221.375 234.513 207.988C234.458 207.228 234.254 206.486 233.911 205.805C233.568 205.124 233.094 204.518 232.516 204.021C231.938 203.525 231.267 203.148 230.542 202.912C229.818 202.677 229.054 202.588 228.294 202.649Z" fill="white"/>
<path d="M191.446 278.545C166.859 278.545 152.081 256.713 146.835 237.513L146.658 236.839C146.378 235.908 146.289 234.93 146.396 233.963C146.503 232.997 146.803 232.062 147.279 231.215C147.755 230.368 148.397 229.625 149.167 229.032C149.936 228.438 150.817 228.007 151.758 227.762C152.698 227.517 153.677 227.465 154.638 227.608C155.599 227.751 156.521 228.086 157.349 228.594C158.178 229.102 158.895 229.772 159.459 230.563C160.022 231.355 160.421 232.253 160.63 233.202L160.762 233.699C164.75 248.312 175.607 265.015 193.025 264.053C196.301 263.939 199.516 263.138 202.461 261.7C205.407 260.262 208.017 258.22 210.123 255.707C219.677 244.742 223.952 220.899 223.002 208.872C222.912 208.101 222.978 207.319 223.197 206.573C223.416 205.828 223.783 205.134 224.276 204.534C224.768 203.933 225.377 203.438 226.065 203.079C226.753 202.719 227.507 202.502 228.281 202.44C229.055 202.378 229.833 202.473 230.57 202.72C231.306 202.966 231.985 203.358 232.567 203.873C233.148 204.388 233.62 205.014 233.954 205.716C234.288 206.417 234.478 207.179 234.511 207.955C235.615 221.341 234.157 250.114 221.003 265.203C217.636 269.17 213.484 272.397 208.81 274.68C204.136 276.963 199.04 278.252 193.843 278.467C193.036 278.522 192.23 278.545 191.446 278.545Z" stroke="#263238" stroke-width="1.1133" stroke-linecap="round" stroke-linejoin="round"/>
<path d="M177.264 263.589C177.85 260.881 171.377 265.114 165.954 269.061C167.96 270.757 170.12 272.263 172.404 273.559C174.337 270.409 176.701 266.198 177.264 263.589Z" fill="#E9E9E9" stroke="#263238" stroke-width="1.1133" stroke-linecap="round" stroke-linejoin="round"/>
<path d="M191.446 278.545C192.23 278.545 193.036 278.545 193.843 278.478C196.189 278.347 198.521 278.018 200.812 277.495C197.764 273.515 193.567 268.254 192.363 267.856C190.982 267.391 188.32 274.167 186.84 278.279C188.369 278.458 189.907 278.546 191.446 278.545Z" fill="#E9E9E9" stroke="#263238" stroke-width="1.1133" stroke-linecap="round" stroke-linejoin="round"/>
<path d="M160.762 233.699L160.63 233.202C160.421 232.253 160.023 231.355 159.459 230.564C158.895 229.772 158.178 229.102 157.349 228.594C156.521 228.086 155.599 227.751 154.638 227.608C153.677 227.465 152.698 227.517 151.758 227.762C150.818 228.007 149.936 228.439 149.167 229.032C148.397 229.625 147.756 230.368 147.279 231.215C146.803 232.063 146.503 232.997 146.396 233.964C146.289 234.93 146.378 235.908 146.658 236.839L146.835 237.513C148.676 244.256 151.505 250.689 155.229 256.603L168.384 250.335C164.934 245.254 162.358 239.631 160.762 233.699Z" fill="#E9E9E9" stroke="#263238" stroke-width="1.1133" stroke-linecap="round" stroke-linejoin="round"/>
<path d="M221.003 265.203C222.014 264.031 222.951 262.798 223.809 261.511C219.633 260.085 213.382 258.117 211.062 258.327C208.312 258.581 212.045 267.424 213.967 271.592C216.554 269.745 218.916 267.6 221.003 265.203Z" fill="#E9E9E9" stroke="#263238" stroke-width="1.1133" stroke-linecap="round" stroke-linejoin="round"/>
<path d="M221.235 241.581C220.793 242.465 226.194 246.4 229.839 248.931C230.996 245.488 231.925 241.973 232.623 238.408C228.205 239.293 221.666 240.718 221.235 241.581Z" fill="#E9E9E9" stroke="#263238" stroke-width="1.1133" stroke-linecap="round" stroke-linejoin="round"/>
<path d="M234.413 225.232C234.656 222.082 234.778 219.075 234.789 216.312C230.989 218.401 226.483 221.297 226.483 223.198C226.483 225.099 230.702 225.331 234.413 225.232Z" fill="#E9E9E9" stroke="#263238" stroke-width="1.1133" stroke-linecap="round" stroke-linejoin="round"/>
<path d="M174.947 139.709C174.947 139.709 164.222 170.792 169.998 194.978C171.709 202.055 175.031 208.642 179.704 214.223C184.377 219.805 190.274 224.23 196.938 227.156C196.938 227.156 181.265 232.682 184.788 241.183C188.311 249.683 201.82 244.212 206.227 241.459C210.634 238.707 216.167 230.461 216.94 224.956C217.432 222.143 217.617 219.286 217.493 216.433C217.493 216.433 235.353 214.51 247.447 204.606C247.447 204.606 258.172 213.128 265.87 211.481C273.569 209.834 284.559 196.072 283.454 183.703C282.35 171.334 275.226 171.345 270.874 173.224C268.615 174.079 266.555 175.388 264.821 177.071C264.821 177.071 271.139 169.333 264.821 158.644C262.956 155.509 260.403 152.839 257.355 150.838C254.306 148.837 250.843 147.556 247.226 147.093C247.226 147.093 243.913 129.484 234.038 122.885C224.164 116.286 188.963 109.455 174.947 139.709Z" fill="white"/>
<path d="M256.601 150.398C251.502 158.91 244.446 166.081 236.021 171.314C227.595 176.547 218.042 179.692 208.157 180.486C186.288 182.41 174.028 178.099 168.395 175.103C169.078 163.077 171.305 151.188 175.022 139.731C189.038 109.477 224.217 116.352 234.113 122.951C244.01 129.55 247.301 147.159 247.301 147.159C250.594 147.573 253.763 148.676 256.601 150.398ZM270.871 173.224C268.612 174.079 266.552 175.388 264.819 177.071C266.156 175.225 267.038 173.089 267.392 170.836C252.537 178.242 253.696 194.049 251.852 194.049C249.576 194.049 248.45 186.102 248.45 186.102C248.45 186.102 245.611 197.454 228.569 205.412C211.526 213.371 192.252 207.115 192.252 207.115C192.252 207.115 196.228 216.201 186.012 215.062C183.144 214.788 180.395 213.783 178.026 212.144C182.925 218.681 189.432 223.837 196.913 227.111C196.913 227.111 181.24 232.638 184.763 241.138C188.287 249.639 201.806 244.167 206.202 241.415C210.598 238.662 216.143 230.416 216.916 224.911C217.407 222.099 217.592 219.241 217.468 216.389C217.468 216.389 235.328 214.466 247.423 204.561C247.423 204.561 258.147 213.084 265.846 211.437C273.544 209.79 284.534 196.028 283.43 183.659C282.325 171.289 275.223 171.345 270.871 173.224Z" fill="#E9E9E9"/>
<path opacity="0.5" d="M256.601 150.398C251.502 158.91 244.446 166.081 236.021 171.314C227.595 176.547 218.042 179.692 208.157 180.486C186.288 182.41 174.028 178.099 168.395 175.103C169.078 163.077 171.305 151.188 175.022 139.731C189.038 109.477 224.217 116.352 234.113 122.951C244.01 129.55 247.301 147.159 247.301 147.159C250.594 147.573 253.763 148.676 256.601 150.398ZM270.871 173.224C268.612 174.079 266.552 175.388 264.819 177.071C266.156 175.225 267.038 173.089 267.392 170.836C252.537 178.242 253.696 194.049 251.852 194.049C249.576 194.049 248.45 186.102 248.45 186.102C248.45 186.102 245.611 197.454 228.569 205.412C211.526 213.371 192.252 207.115 192.252 207.115C192.252 207.115 196.228 216.201 186.012 215.062C183.144 214.788 180.395 213.783 178.026 212.144C182.925 218.681 189.432 223.837 196.913 227.111C196.913 227.111 181.24 232.638 184.763 241.138C188.287 249.639 201.806 244.167 206.202 241.415C210.598 238.662 216.143 230.416 216.916 224.911C217.407 222.099 217.592 219.241 217.468 216.389C217.468 216.389 235.328 214.466 247.423 204.561C247.423 204.561 258.147 213.084 265.846 211.437C273.544 209.79 284.534 196.028 283.43 183.659C282.325 171.289 275.223 171.345 270.871 173.224Z" fill="white"/>
<path d="M217.545 216.455C211.617 216.613 205.732 215.409 200.342 212.935C194.952 210.461 190.201 206.783 186.453 202.185" stroke="#263238" stroke-width="1.1133" stroke-linecap="round" stroke-linejoin="round"/>
<path d="M174.947 139.709C174.947 139.709 164.222 170.792 169.998 194.978C171.709 202.055 175.031 208.642 179.704 214.223C184.377 219.805 190.274 224.23 196.938 227.156C196.938 227.156 181.265 232.682 184.788 241.183C188.311 249.683 201.82 244.212 206.227 241.459C210.634 238.707 216.167 230.461 216.94 224.956C217.432 222.143 217.617 219.286 217.493 216.433C217.493 216.433 235.353 214.51 247.447 204.606C247.447 204.606 258.172 213.128 265.87 211.481C273.569 209.834 284.559 196.072 283.454 183.703C282.35 171.334 275.226 171.345 270.874 173.224C268.615 174.079 266.555 175.388 264.821 177.071C264.821 177.071 271.139 169.333 264.821 158.644C262.956 155.509 260.403 152.839 257.355 150.838C254.306 148.837 250.843 147.556 247.226 147.093C247.226 147.093 243.913 129.484 234.038 122.885C224.164 116.286 188.963 109.455 174.947 139.709Z" stroke="#263238" stroke-width="1.1133" stroke-linecap="round" stroke-linejoin="round"/>
<path d="M264.819 177.115C264.819 177.115 259.053 180.973 256.303 192.801" stroke="#263238" stroke-width="1.1133" stroke-linecap="round" stroke-linejoin="round"/>
<path d="M275.412 182.177C274.738 184.189 272.893 185.394 271.303 184.852C269.712 184.311 268.983 182.244 269.657 180.232C270.331 178.22 272.175 177.015 273.766 177.557C275.356 178.099 276.096 180.166 275.412 182.177Z" fill="white" stroke="#263238" stroke-width="1.1133" stroke-linecap="round" stroke-linejoin="round"/>
<path d="M281.099 185.759C280.426 187.771 278.581 188.976 276.991 188.434C275.4 187.892 274.66 185.825 275.345 183.814C276.03 181.802 277.863 180.597 279.454 181.139C281.044 181.68 281.784 183.747 281.099 185.759Z" fill="white" stroke="#263238" stroke-width="1.1133" stroke-linecap="round" stroke-linejoin="round"/>
<path d="M282.315 191.12C282.094 191.49 281.773 191.79 281.389 191.985C281.005 192.18 280.574 192.261 280.146 192.221C279.717 192.18 279.309 192.018 278.968 191.755C278.628 191.491 278.369 191.136 278.222 190.731C278.075 190.327 278.046 189.888 278.138 189.467C278.23 189.046 278.439 188.66 278.742 188.354C279.044 188.047 279.427 187.833 279.847 187.736C280.266 187.638 280.704 187.662 281.111 187.804C281.697 188.098 282.149 188.605 282.373 189.222C282.597 189.839 282.576 190.518 282.315 191.12Z" fill="white" stroke="#263238" stroke-width="1.1133" stroke-linecap="round" stroke-linejoin="round"/>
<path d="M275.058 198.482C273.07 202.075 269.094 203.666 266.167 202.041C263.24 200.417 262.489 196.205 264.477 192.613C266.465 189.02 270.441 187.428 273.368 189.053C276.295 190.678 277.046 194.89 275.058 198.482Z" fill="white" stroke="#263238" stroke-width="1.1133" stroke-linecap="round" stroke-linejoin="round"/>
<path d="M196.936 227.178C200.638 228.902 204.847 229.198 208.754 228.007" stroke="#263238" stroke-width="1.1133" stroke-linecap="round" stroke-linejoin="round"/>
<path d="M184.842 241.205C184.842 241.205 185.946 236.529 192.805 233.235" stroke="#263238" stroke-width="1.1133" stroke-linecap="round" stroke-linejoin="round"/>
<path d="M191.711 245.339C191.711 245.339 194.461 238.707 199.134 235.711" stroke="#263238" stroke-width="1.1133" stroke-linecap="round" stroke-linejoin="round"/>
<path d="M83.3257 169.245C82.1573 168.312 81.226 167.115 80.6078 165.753C79.9897 164.391 79.7023 162.902 79.7691 161.407V135.199H12.217C10.5669 135.261 8.9229 134.965 7.39775 134.331C5.87259 133.698 4.50233 132.742 3.38087 131.529C1.17138 129.19 -0.0409056 126.081 0.001054 122.863C-0.00789328 120.248 0.761088 117.689 2.21008 115.512L66.9126 13.7509C71.7725 6.24166 78.2302 2.48705 86.2858 2.48705C90.6167 2.33981 94.8454 3.8228 98.1372 6.64328C101.296 9.40673 102.876 13.5151 102.876 18.9683V117.889H120.062C121.249 117.817 122.437 118.008 123.542 118.447C124.648 118.887 125.643 119.564 126.457 120.431C127.91 122.136 128.709 124.303 128.709 126.544C128.709 128.785 127.91 130.952 126.457 132.657C125.643 133.524 124.648 134.201 123.542 134.64C122.437 135.08 121.249 135.27 120.062 135.199H102.754V161.407C102.826 162.891 102.553 164.37 101.957 165.73C101.361 167.09 100.458 168.293 99.3191 169.245C97.0958 171.11 94.2788 172.118 91.3776 172.085C88.4445 172.109 85.5958 171.104 83.3257 169.245ZM79.725 117.889V26.8054L23.0744 117.889H79.725Z" fill="#263238"/>
<path d="M177.065 169.775C170.444 166.884 164.581 162.499 159.934 156.964C155.266 151.116 151.621 144.519 149.154 137.454C146.357 129.821 144.391 121.909 143.289 113.854C142.139 105.084 141.586 96.247 141.632 87.4024C141.632 29.1341 161.513 0 201.276 0C241.038 0 260.872 29.1341 260.776 87.4024C260.815 96.2046 260.28 105 259.175 113.732C258.109 121.789 256.16 129.703 253.365 137.332C250.897 144.398 247.252 150.994 242.585 156.842C237.932 162.385 232.071 166.786 225.454 169.709C217.845 173.075 209.593 174.735 201.276 174.573C192.954 174.74 184.695 173.103 177.065 169.775ZM213.028 153.051C216.355 151.63 219.375 149.577 221.919 147.004C224.496 144.259 226.614 141.116 228.193 137.697C229.935 134.075 231.344 130.301 232.401 126.422C233.515 122.196 234.327 117.897 234.831 113.556C235.428 108.766 235.825 104.377 236.024 100.391C236.223 96.4038 236.318 92.0744 236.311 87.4024C236.311 82.5018 236.215 77.9771 236.024 73.8283C235.833 69.6794 235.416 65.2284 234.776 60.4753C234.226 56.1372 233.396 51.8394 232.291 47.6087C231.245 43.7691 229.836 40.0381 228.083 36.4665C226.492 33.1013 224.37 30.0146 221.798 27.325C219.268 24.8041 216.265 22.8092 212.962 21.4554C205.41 18.5374 197.043 18.5374 189.491 21.4554C186.211 22.793 183.23 24.7694 180.721 27.2697C178.168 29.9477 176.051 33.01 174.447 36.3449C172.678 39.8844 171.286 43.6005 170.294 47.4318C169.216 51.688 168.404 56.0074 167.864 60.3648C167.224 65.1842 166.808 69.6721 166.616 73.8283C166.425 77.9845 166.325 82.5092 166.318 87.4024C166.318 92.0671 166.417 96.4149 166.616 100.446C166.815 104.477 167.209 108.898 167.798 113.71C168.308 118.051 169.12 122.35 170.228 126.577C171.271 130.454 172.664 134.228 174.392 137.852C175.955 141.25 178.054 144.374 180.61 147.104C183.136 149.66 186.138 151.695 189.447 153.095C197.006 156.175 205.469 156.175 213.028 153.095V153.051Z" fill="#263238"/>
<path d="M363.122 169.244C361.954 168.311 361.023 167.115 360.404 165.753C359.786 164.391 359.499 162.902 359.566 161.407V135.199H292.014C290.363 135.261 288.719 134.965 287.194 134.331C285.669 133.698 284.299 132.742 283.177 131.529C280.968 129.19 279.756 126.081 279.798 122.863C279.789 120.247 280.558 117.688 282.007 115.512L346.709 13.7507C351.525 6.2415 357.964 2.48689 366.027 2.48689C370.381 2.32284 374.636 3.80688 377.945 6.64312C381.104 9.40657 382.683 13.5149 382.683 18.9681V117.889H399.869C401.056 117.817 402.245 118.008 403.35 118.447C404.455 118.886 405.45 119.564 406.265 120.431C407.718 122.136 408.516 124.303 408.516 126.544C408.516 128.784 407.718 130.952 406.265 132.656C405.45 133.524 404.455 134.201 403.35 134.64C402.245 135.08 401.056 135.27 399.869 135.199H382.551V161.407C382.622 162.89 382.349 164.37 381.753 165.73C381.157 167.09 380.255 168.293 379.116 169.244C376.892 171.11 374.075 172.118 371.174 172.085C368.241 172.108 365.392 171.103 363.122 169.244ZM359.566 117.889V26.8052L302.915 117.889H359.566Z" fill="#263238"/>
<path d="M152.677 124.035C152.677 124.035 141.135 140.262 139.489 156.765C137.843 173.268 139.765 184.267 144.713 188.401C149.662 192.535 154.599 190.877 157.349 187.019C160.099 183.162 155.703 169.687 155.703 169.687C155.703 169.687 160.375 156.765 167.522 147.69C174.668 138.615 176.037 137.233 176.037 137.233C176.037 137.233 163.667 123.206 152.677 124.035Z" fill="white"/>
<path d="M152.676 124.035C150.158 127.759 147.924 131.669 145.994 135.73C151.517 137.941 160.077 142.473 165.511 150.498C166.174 149.536 166.858 148.585 167.565 147.69C174.712 138.615 176.081 137.233 176.081 137.233C176.081 137.233 163.666 123.206 152.676 124.035Z" fill="#E9E9E9"/>
<path opacity="0.5" d="M152.676 124.035C150.158 127.759 147.924 131.669 145.994 135.73C151.517 137.941 160.077 142.473 165.511 150.498C166.174 149.536 166.858 148.585 167.565 147.69C174.712 138.615 176.081 137.233 176.081 137.233C176.081 137.233 163.666 123.206 152.676 124.035Z" fill="white"/>
<path d="M152.677 124.035C152.677 124.035 141.135 140.262 139.489 156.765C137.843 173.268 139.765 184.267 144.713 188.401C149.662 192.535 154.599 190.877 157.349 187.019C160.099 183.162 155.703 169.687 155.703 169.687C155.703 169.687 160.375 156.765 167.522 147.69C174.668 138.615 176.037 137.233 176.037 137.233C176.037 137.233 163.667 123.206 152.677 124.035Z" stroke="#263238" stroke-width="1.1133" stroke-linecap="round" stroke-linejoin="round"/>
<path d="M144.715 188.401C143.366 184.795 142.71 180.966 142.782 177.115" stroke="#263238" stroke-width="1.1133" stroke-linecap="round" stroke-linejoin="round"/>
<path d="M152.127 190.048C152.127 190.048 149.388 185.372 149.112 177.391" stroke="#263238" stroke-width="1.1133" stroke-linecap="round" stroke-linejoin="round"/>
<path d="M156.256 153.46C156.256 150.564 150.733 144.904 143.057 142.406C142.025 145.099 141.172 147.858 140.505 150.663C143.488 151.174 146.384 152.101 149.11 153.416C153.229 155.66 156.256 156.765 156.256 153.46Z" fill="#E9E9E9" stroke="#263238" stroke-width="1.1133" stroke-linecap="round" stroke-linejoin="round"/>
<path d="M152.006 125.019C150.225 127.735 148.588 130.543 147.102 133.43C149.426 134.046 151.656 134.975 153.729 136.194C162.244 141.135 163.89 141.721 161.151 134.536C159.494 130.026 155.54 126.964 152.006 125.019Z" fill="#E9E9E9" stroke="#263238" stroke-width="1.1133" stroke-linecap="round" stroke-linejoin="round"/>
<path d="M243.083 116.021C243.083 116.021 256.16 131.032 259.419 147.303C262.677 163.574 261.849 174.705 257.32 179.292C252.792 183.88 247.722 182.73 244.607 179.16C241.492 175.589 244.607 161.761 244.607 161.761C244.607 161.761 238.687 149.348 230.69 141.013C222.694 132.679 221.18 131.452 221.18 131.452C221.18 131.452 232.06 116.275 243.083 116.021Z" fill="white"/>
<path d="M243.084 116.021C232.039 116.275 221.126 131.496 221.126 131.496C221.126 131.496 222.629 132.734 230.636 141.057C232.134 142.636 233.543 144.296 234.856 146.032C239.035 138.966 245.006 133.132 252.163 129.119C249.53 124.493 246.491 120.11 243.084 116.021Z" fill="#E9E9E9"/>
<path opacity="0.5" d="M243.084 116.021C232.039 116.275 221.126 131.496 221.126 131.496C221.126 131.496 222.629 132.734 230.636 141.057C232.134 142.636 233.543 144.296 234.856 146.032C239.035 138.966 245.006 133.132 252.163 129.119C249.53 124.493 246.491 120.11 243.084 116.021Z" fill="white"/>
<path d="M243.083 116.021C243.083 116.021 256.16 131.032 259.419 147.303C262.677 163.574 261.849 174.705 257.32 179.292C252.792 183.88 247.722 182.73 244.607 179.16C241.492 175.589 244.607 161.761 244.607 161.761C244.607 161.761 238.687 149.348 230.69 141.013C222.694 132.679 221.18 131.452 221.18 131.452C221.18 131.452 232.06 116.275 243.083 116.021Z" stroke="#263238" stroke-width="1.1133" stroke-linecap="round" stroke-linejoin="round"/>
<path d="M257.32 179.293C258.311 175.576 258.589 171.705 258.138 167.885" stroke="#263238" stroke-width="1.1133" stroke-linecap="round" stroke-linejoin="round"/>
<path d="M250.097 181.658C250.097 181.658 252.384 176.739 251.875 168.77" stroke="#263238" stroke-width="1.1133" stroke-linecap="round" stroke-linejoin="round"/>
<path d="M242.407 145.656C242.131 142.771 247.068 136.603 254.469 133.408C255.748 135.985 256.855 138.643 257.782 141.367C254.87 142.18 252.082 143.388 249.498 144.959C245.632 147.557 242.739 148.906 242.407 145.656Z" fill="#E9E9E9" stroke="#263238" stroke-width="1.1133" stroke-linecap="round" stroke-linejoin="round"/>
<path d="M243.846 116.938C245.877 119.447 247.772 122.063 249.523 124.775C247.262 125.613 245.125 126.755 243.172 128.169C235.186 133.939 233.596 134.646 235.628 127.262C236.898 122.653 240.521 119.215 243.846 116.938Z" fill="#E9E9E9" stroke="#263238" stroke-width="1.1133" stroke-linecap="round" stroke-linejoin="round"/>
<path d="M151.596 109.996C151.596 109.996 148.194 121.481 149.476 126.157C150.757 130.833 156.699 126.588 162.653 131.684C168.606 136.78 174.117 145.977 196.661 147.679C219.204 149.381 232.811 137.211 237.528 130.402C242.244 123.593 241.78 115.512 249.854 115.092C257.928 114.672 251.135 98.9206 248.584 96.3672C248.584 96.3672 264.312 72.9663 264.312 67.0083C264.312 61.0503 249.434 62.3215 231.177 67.8594C231.177 67.8594 217.569 60.6192 192.905 64.8749C168.241 69.1306 161.018 76.3709 161.018 76.3709C161.018 76.3709 130.401 80.1955 128.28 84.0201C126.159 87.8447 132.466 104.038 151.596 109.996Z" fill="white"/>
<path d="M249.821 115.103C257.906 114.672 251.102 98.9313 248.55 96.3778C248.55 96.3778 251.544 91.9563 254.912 86.4294C245.778 81.6542 236.809 79.0013 234.424 81.6874C229.288 87.4574 232.082 98.5112 234.424 109.322C236.765 120.132 227.41 124.742 220.871 134.093C214.333 143.445 204.999 133.154 204.999 133.154C201.686 146.717 187.714 137.83 187.714 137.83C176.978 134.513 158.764 123.813 162.498 116.33C166.231 108.847 167.17 101.838 160.631 95.7699C154.092 89.7013 128.015 84.6498 128.015 84.6498C126.645 89.2592 133.261 104.359 151.607 110.073C151.607 110.073 148.205 121.558 149.486 126.234C150.768 130.91 156.71 126.665 162.663 131.761C168.617 136.857 174.128 146.054 196.671 147.756C219.215 149.458 232.822 137.288 237.538 130.479C242.255 123.67 241.736 115.523 249.821 115.103Z" fill="#E9E9E9"/>
<path opacity="0.5" d="M249.821 115.103C257.906 114.672 251.102 98.9313 248.55 96.3778C248.55 96.3778 251.544 91.9563 254.912 86.4294C245.778 81.6542 236.809 79.0013 234.424 81.6874C229.288 87.4574 232.082 98.5112 234.424 109.322C236.765 120.132 227.41 124.742 220.871 134.093C214.333 143.445 204.999 133.154 204.999 133.154C201.686 146.717 187.714 137.83 187.714 137.83C176.978 134.513 158.764 123.813 162.498 116.33C166.231 108.847 167.17 101.838 160.631 95.7699C154.092 89.7013 128.015 84.6498 128.015 84.6498C126.645 89.2592 133.261 104.359 151.607 110.073C151.607 110.073 148.205 121.558 149.486 126.234C150.768 130.91 156.71 126.665 162.663 131.761C168.617 136.857 174.128 146.054 196.671 147.756C219.215 149.458 232.822 137.288 237.538 130.479C242.255 123.67 241.736 115.523 249.821 115.103Z" fill="white"/>
<path d="M216.565 117.668C216.885 120.365 210.899 123.272 203.223 124.167C195.546 125.063 189.052 123.604 188.731 120.851C188.411 118.099 194.397 115.258 202.085 114.363C209.772 113.467 216.256 114.982 216.565 117.668Z" fill="#E9E9E9"/>
<path opacity="0.5" d="M216.565 117.668C216.885 120.365 210.899 123.272 203.223 124.167C195.546 125.063 189.052 123.604 188.731 120.851C188.411 118.099 194.397 115.258 202.085 114.363C209.772 113.467 216.256 114.982 216.565 117.668Z" fill="white"/>
<path d="M151.596 109.996C151.596 109.996 148.194 121.481 149.476 126.157C150.757 130.833 156.699 126.588 162.653 131.684C168.606 136.78 174.117 145.977 196.661 147.679C219.204 149.381 232.811 137.211 237.528 130.402C242.244 123.593 241.78 115.512 249.854 115.092C257.928 114.672 251.135 98.9206 248.584 96.3672C248.584 96.3672 264.312 72.9663 264.312 67.0083C264.312 61.0503 249.434 62.3215 231.177 67.8594C231.177 67.8594 217.569 60.6192 192.905 64.8749C168.241 69.1306 161.018 76.3709 161.018 76.3709C161.018 76.3709 130.401 80.1955 128.28 84.0201C126.159 87.8447 132.466 104.038 151.596 109.996Z" stroke="#263238" stroke-width="1.1133" stroke-miterlimit="10"/>
<path d="M239.538 75.9504C228.493 83.3786 232.392 90.8067 237.329 94.9298C240.344 97.4501 245.204 97.1406 248.529 96.4331C248.529 96.4331 264.257 73.0322 264.257 67.0743C264.268 67.019 250.528 68.467 239.538 75.9504Z" fill="#E9E9E9" stroke="#263238" stroke-width="1.1133" stroke-miterlimit="10"/>
<path d="M128.003 84.5724C126.634 89.1819 133.25 104.281 151.596 109.996C151.596 109.996 165.601 108.625 160.929 97.3506C156.566 86.8274 134.509 84.2077 128.003 84.5724Z" fill="#E9E9E9" stroke="#263238" stroke-width="1.1133" stroke-miterlimit="10"/>
<path d="M192.838 64.8969C191.391 65.1511 189.999 65.4164 188.663 65.6817C190.872 76.846 194.506 95.4385 197.753 95.4385C201 95.4385 203.485 75.0553 204.546 63.6367C200.62 63.8022 196.709 64.2231 192.838 64.8969Z" fill="#E9E9E9" stroke="#263238" stroke-width="1.1133" stroke-miterlimit="10"/>
<path d="M180.169 92.1224C183.549 90.1327 183.041 75.177 182.5 67.0635C179.011 67.9308 175.578 69.0049 172.217 70.2801C173.443 77.8741 176.558 94.2447 180.169 92.1224Z" fill="#E9E9E9" stroke="#263238" stroke-width="1.1133" stroke-miterlimit="10"/>
<path d="M212.875 85.2471C216.332 86.463 218.276 74.0275 219.37 64.4549C215.878 63.8854 212.348 63.586 208.81 63.5596C208.7 71.4188 209.131 83.9317 212.875 85.2471Z" fill="#E9E9E9" stroke="#263238" stroke-width="1.1133" stroke-miterlimit="10"/>
<path d="M208.245 128.29C205.02 127.442 201.592 127.865 198.669 129.473C198.541 129.547 198.432 129.65 198.351 129.774C198.269 129.898 198.218 130.039 198.201 130.186C198.184 130.333 198.201 130.482 198.252 130.621C198.302 130.76 198.385 130.886 198.492 130.987L204.357 136.514C204.467 136.617 204.6 136.693 204.745 136.734C204.89 136.776 205.043 136.782 205.19 136.753C205.338 136.724 205.477 136.66 205.595 136.567C205.714 136.473 205.808 136.353 205.871 136.216L208.875 129.583C208.929 129.458 208.955 129.322 208.951 129.186C208.948 129.05 208.915 128.915 208.856 128.793C208.796 128.67 208.711 128.562 208.605 128.475C208.5 128.388 208.377 128.325 208.245 128.29Z" fill="#E9E9E9" stroke="#263238" stroke-width="1.1133" stroke-linecap="round" stroke-linejoin="round"/>
<path d="M194.308 119.06C195.114 121.194 194.794 123.294 193.59 123.747C192.386 124.2 190.751 122.852 189.934 120.73C189.117 118.607 189.448 116.496 190.652 116.043C191.856 115.59 193.491 116.938 194.308 119.06Z" fill="#263238"/>
<path d="M210.301 117.546C209.881 119.757 210.566 121.802 211.836 122.034C213.106 122.266 214.476 120.652 214.896 118.408C215.315 116.164 214.63 114.164 213.36 113.92C212.09 113.677 210.72 115.313 210.301 117.546Z" fill="#263238"/>
<path d="M205.872 136.205C205.872 136.205 198.03 146.861 190.884 136.139" stroke="#263238" stroke-width="1.1133" stroke-linecap="round" stroke-linejoin="round"/>
<path d="M204.36 136.503C204.36 136.503 209.573 141.909 215.073 138.88C220.574 135.851 217.282 131.142 217.282 131.142" stroke="#263238" stroke-width="1.1133" stroke-linecap="round" stroke-linejoin="round"/>
<path d="M180.447 110.549C180.447 110.549 182.369 103.674 191.437 105.321" stroke="#263238" stroke-width="3.33991" stroke-linecap="round" stroke-linejoin="round"/>
<path d="M207.927 104.226C207.927 104.226 214.797 100.103 221.115 106.702" stroke="#263238" stroke-width="3.33991" stroke-linecap="round" stroke-linejoin="round"/>
<path d="M175.222 128.987L181.816 130.634" stroke="#263238" stroke-width="1.1133" stroke-miterlimit="10" stroke-linecap="round"/>
<path d="M180.988 133.11L175.222 134.204" stroke="#263238" stroke-width="1.1133" stroke-miterlimit="10" stroke-linecap="round"/>
<path d="M182.092 136.139L177.972 138.338" stroke="#263238" stroke-width="1.1133" stroke-miterlimit="10" stroke-linecap="round"/>
<path d="M223.864 125.958L229.64 124.576" stroke="#263238" stroke-width="1.1133" stroke-miterlimit="10" stroke-linecap="round"/>
<path d="M224.968 128.71H228.812" stroke="#263238" stroke-width="1.1133" stroke-miterlimit="10" stroke-linecap="round"/>
<path d="M225.786 131.463L231.011 132.834" stroke="#263238" stroke-width="1.1133" stroke-miterlimit="10" stroke-linecap="round"/>
</svg>
