<svg width="100" height="100" viewBox="0 0 100 100" fill="none" xmlns="http://www.w3.org/2000/svg">
<circle cx="50" cy="50" r="50" fill="#7628A7"/>
<path d="M57.8574 31.4285L52.8574 47.1428L68.5717 42.1428C68.5717 39.3011 67.4429 36.5759 65.4336 34.5666C63.4242 32.5573 60.699 31.4285 57.8574 31.4285Z" stroke="white" stroke-linecap="round" stroke-linejoin="round"/>
<path d="M51.4287 31.4856L50.0001 31.4285C46.3271 31.4285 42.7365 32.5177 39.6824 34.5583C36.6284 36.599 34.248 39.4994 32.8424 42.8929C31.4368 46.2864 31.069 50.0205 31.7856 53.623C32.5021 57.2255 34.2709 60.5346 36.8682 63.1319C39.4654 65.7291 42.7745 67.4979 46.377 68.2145C49.9795 68.9311 53.7136 68.5633 57.1071 67.1577C60.5006 65.752 63.4011 63.3717 65.4417 60.3176C67.4824 57.2636 68.5716 53.673 68.5716 49.9999C68.5716 49.5142 68.5716 49.057 68.5716 48.5713" stroke="white" stroke-linecap="round" stroke-linejoin="round"/>
<path d="M45.7142 58.5714C46.5032 58.5714 47.1428 57.9318 47.1428 57.1428C47.1428 56.3538 46.5032 55.7142 45.7142 55.7142C44.9252 55.7142 44.2856 56.3538 44.2856 57.1428C44.2856 57.9318 44.9252 58.5714 45.7142 58.5714Z" stroke="white" stroke-linecap="round" stroke-linejoin="round"/>
<path d="M41.4286 45.7141C42.2175 45.7141 42.8571 45.0745 42.8571 44.2855C42.8571 43.4965 42.2175 42.8569 41.4286 42.8569C40.6396 42.8569 40 43.4965 40 44.2855C40 45.0745 40.6396 45.7141 41.4286 45.7141Z" stroke="white" stroke-linecap="round" stroke-linejoin="round"/>
<path d="M60.0003 54.2856C60.7893 54.2856 61.4289 53.646 61.4289 52.857C61.4289 52.0681 60.7893 51.4285 60.0003 51.4285C59.2114 51.4285 58.5718 52.0681 58.5718 52.857C58.5718 53.646 59.2114 54.2856 60.0003 54.2856Z" stroke="white" stroke-linecap="round" stroke-linejoin="round"/>
</svg>
